<svg width="31" height="31" viewBox="0 0 31 31" fill="none" xmlns="http://www.w3.org/2000/svg">
<rect x="6" y="6" width="20" height="20" fill="white"/>
<path d="M15.2273 0C19.2658 0 23.1389 1.6043 25.9946 4.45997C28.8502 7.31563 30.4545 11.1887 30.4545 15.2273C30.4545 19.2658 28.8502 23.1389 25.9946 25.9946C23.1389 28.8502 19.2658 30.4545 15.2273 30.4545C11.1887 30.4545 7.31563 28.8502 4.45997 25.9946C1.6043 23.1389 0 19.2658 0 15.2273C0 11.1887 1.6043 7.31563 4.45997 4.45997C7.31563 1.6043 11.1887 0 15.2273 0V0ZM8.56534 14.2756C8.31293 14.2756 8.07086 14.3758 7.89238 14.5543C7.71391 14.7328 7.61364 14.9749 7.61364 15.2273C7.61364 15.4797 7.71391 15.7218 7.89238 15.9002C8.07086 16.0787 8.31293 16.179 8.56534 16.179H19.5918L15.5052 20.2637C15.4167 20.3522 15.3465 20.4572 15.2986 20.5728C15.2507 20.6884 15.2261 20.8124 15.2261 20.9375C15.2261 21.0626 15.2507 21.1866 15.2986 21.3022C15.3465 21.4178 15.4167 21.5228 15.5052 21.6113C15.5937 21.6998 15.6987 21.77 15.8143 21.8179C15.9299 21.8658 16.0538 21.8904 16.179 21.8904C16.3041 21.8904 16.428 21.8658 16.5436 21.8179C16.6593 21.77 16.7643 21.6998 16.8528 21.6113L22.563 15.9011C22.6516 15.8127 22.722 15.7077 22.7699 15.592C22.8179 15.4764 22.8426 15.3525 22.8426 15.2273C22.8426 15.1021 22.8179 14.9781 22.7699 14.8625C22.722 14.7469 22.6516 14.6419 22.563 14.5535L16.8528 8.84324C16.7643 8.75475 16.6593 8.68456 16.5436 8.63667C16.428 8.58879 16.3041 8.56414 16.179 8.56414C16.0538 8.56414 15.9299 8.58879 15.8143 8.63667C15.6987 8.68456 15.5937 8.75475 15.5052 8.84324C15.4167 8.93172 15.3465 9.03677 15.2986 9.15238C15.2507 9.268 15.2261 9.39191 15.2261 9.51705C15.2261 9.64218 15.2507 9.7661 15.2986 9.88171C15.3465 9.99732 15.4167 10.1024 15.5052 10.1909L19.5918 14.2756H8.56534Z" fill="#F6831F"/>
</svg>
