<svg width="24" height="23" viewBox="0 0 24 23" fill="none" xmlns="http://www.w3.org/2000/svg">
<path fill-rule="evenodd" clip-rule="evenodd" d="M11.7062 0.958344C5.79807 0.958344 1.00838 5.67814 1.00838 11.5C1.00838 17.3219 5.79807 22.0417 11.7062 22.0417C17.6143 22.0417 22.4039 17.3219 22.4039 11.5C22.4039 5.67814 17.6143 0.958344 11.7062 0.958344ZM10.6286 8.56272C10.8523 8.12859 11.0176 7.92255 11.1547 7.81522C11.2578 7.73472 11.3979 7.66668 11.7062 7.66668C12.314 7.66668 12.6787 8.11709 12.6787 8.60393C12.6787 8.87034 12.6262 9.00259 12.4822 9.17126C12.2809 9.40701 11.9085 9.69355 11.1713 10.1737L10.7336 10.4573V12.4583C10.7336 12.7125 10.8361 12.9563 11.0185 13.136C11.2009 13.3157 11.4482 13.4167 11.7062 13.4167C11.9641 13.4167 12.2115 13.3157 12.3938 13.136C12.5762 12.9563 12.6787 12.7125 12.6787 12.4583V11.4837C13.2058 11.1253 13.6483 10.7822 13.9692 10.4066C14.4331 9.86414 14.6237 9.2853 14.6237 8.60393C14.6237 7.19518 13.5219 5.75001 11.7062 5.75001C11.041 5.75001 10.4526 5.91868 9.94784 6.31255C9.47714 6.67959 9.1562 7.18464 8.89362 7.69734C8.8326 7.80992 8.79502 7.93337 8.78307 8.06045C8.77113 8.18753 8.78506 8.31568 8.82406 8.43738C8.86305 8.55908 8.92632 8.67188 9.01016 8.76916C9.09399 8.86644 9.1967 8.94624 9.31225 9.00388C9.42781 9.06151 9.55388 9.09583 9.68307 9.1048C9.81227 9.11377 9.94198 9.09723 10.0646 9.05613C10.1872 9.01504 10.3003 8.95023 10.3971 8.8655C10.494 8.78077 10.5727 8.67783 10.6286 8.56272ZM12.6787 15.8125C12.6787 15.5583 12.5762 15.3146 12.3938 15.1349C12.2115 14.9551 11.9641 14.8542 11.7062 14.8542C11.4482 14.8542 11.2009 14.9551 11.0185 15.1349C10.8361 15.3146 10.7336 15.5583 10.7336 15.8125V16.2917C10.7336 16.5458 10.8361 16.7896 11.0185 16.9693C11.2009 17.149 11.4482 17.25 11.7062 17.25C11.9641 17.25 12.2115 17.149 12.3938 16.9693C12.5762 16.7896 12.6787 16.5458 12.6787 16.2917V15.8125Z" fill="white"/>
</svg>
