<svg width="19" height="19" viewBox="0 0 19 19" fill="none" xmlns="http://www.w3.org/2000/svg">
<path fill-rule="evenodd" clip-rule="evenodd" d="M6.13043 0.756353C7.08077 0.712603 7.38378 0.702881 9.80462 0.702881C12.2254 0.702881 12.5285 0.713413 13.478 0.756353C14.4275 0.799293 15.0757 0.950798 15.6428 1.17036C16.2367 1.39478 16.7754 1.74559 17.221 2.19929C17.6748 2.64408 18.0248 3.18205 18.2484 3.77672C18.4687 4.34385 18.6194 4.992 18.6632 5.93992C18.7069 6.89189 18.7167 7.19489 18.7167 9.61492C18.7167 12.0358 18.7061 12.3388 18.6632 13.2891C18.6202 14.237 18.4687 14.8852 18.2484 15.4523C18.0247 16.0471 17.6742 16.5859 17.221 17.0314C16.7754 17.4851 16.2367 17.8351 15.6428 18.0587C15.0757 18.279 14.4275 18.4297 13.4796 18.4735C12.5285 18.5172 12.2254 18.527 9.80462 18.527C7.38378 18.527 7.08077 18.5164 6.13043 18.4735C5.18251 18.4305 4.53436 18.279 3.96723 18.0587C3.37249 17.835 2.83364 17.4845 2.38818 17.0314C1.93478 16.5863 1.58392 16.0477 1.36005 15.4531C1.14049 14.886 0.9898 14.2378 0.94605 13.2899C0.9023 12.3379 0.892578 12.0349 0.892578 9.61492C0.892578 7.19408 0.903111 6.89108 0.94605 5.94154C0.98899 4.992 1.14049 4.34385 1.36005 3.77672C1.58425 3.18211 1.93538 2.64353 2.38899 2.19848C2.83381 1.74519 3.37213 1.39433 3.96642 1.17036C4.53355 0.950798 5.1817 0.800103 6.12962 0.756353H6.13043ZM13.4059 2.36052C12.4661 2.31758 12.1841 2.30867 9.80462 2.30867C7.4251 2.30867 7.14316 2.31758 6.20334 2.36052C5.33401 2.40022 4.86249 2.54524 4.54813 2.66758C4.13251 2.82962 3.83517 3.02163 3.52325 3.33355C3.22757 3.62121 3.00002 3.9714 2.85728 4.35844C2.73494 4.67279 2.58992 5.14432 2.55022 6.01364C2.50728 6.95346 2.49837 7.2354 2.49837 9.61492C2.49837 11.9944 2.50728 12.2764 2.55022 13.2162C2.58992 14.0855 2.73494 14.557 2.85728 14.8714C2.99987 15.2579 3.22753 15.6087 3.52325 15.8963C3.81087 16.192 4.16168 16.4197 4.54813 16.5623C4.86249 16.6846 5.33401 16.8296 6.20334 16.8693C7.14316 16.9123 7.42429 16.9212 9.80462 16.9212C12.1849 16.9212 12.4661 16.9123 13.4059 16.8693C14.2752 16.8296 14.7467 16.6846 15.0611 16.5623C15.4767 16.4002 15.7741 16.2082 16.086 15.8963C16.3817 15.6087 16.6094 15.2579 16.752 14.8714C16.8743 14.557 17.0193 14.0855 17.059 13.2162C17.102 12.2764 17.1109 11.9944 17.1109 9.61492C17.1109 7.2354 17.102 6.95346 17.059 6.01364C17.0193 5.14432 16.8743 4.67279 16.752 4.35844C16.5899 3.94281 16.3979 3.64547 16.086 3.33355C15.7983 3.03789 15.4481 2.81034 15.0611 2.66758C14.7467 2.54524 14.2752 2.40022 13.4059 2.36052V2.36052ZM8.66631 12.3623C9.30202 12.6269 10.0099 12.6626 10.669 12.4633C11.3282 12.264 11.8976 11.842 12.2802 11.2695C12.6628 10.697 12.8348 10.0094 12.7667 9.32415C12.6986 8.63892 12.3948 7.99858 11.907 7.51249C11.5961 7.20176 11.2202 6.96384 10.8063 6.81585C10.3924 6.66785 9.9508 6.61347 9.51335 6.65662C9.0759 6.69977 8.65347 6.83937 8.27645 7.06537C7.89943 7.29137 7.57721 7.59816 7.33299 7.96364C7.08876 8.32912 6.92861 8.7442 6.86406 9.17901C6.79951 9.61381 6.83217 10.0575 6.95968 10.4782C7.0872 10.8989 7.30639 11.286 7.6015 11.6118C7.8966 11.9376 8.26026 12.1939 8.66631 12.3623ZM6.56549 6.3758C6.99086 5.95043 7.49585 5.61301 8.05162 5.3828C8.60739 5.1526 9.20305 5.03411 9.80462 5.03411C10.4062 5.03411 11.0018 5.1526 11.5576 5.3828C12.1134 5.61301 12.6184 5.95043 13.0437 6.3758C13.4691 6.80116 13.8065 7.30615 14.0367 7.86192C14.2669 8.41769 14.3854 9.01336 14.3854 9.61492C14.3854 10.2165 14.2669 10.8121 14.0367 11.3679C13.8065 11.9237 13.4691 12.4287 13.0437 12.854C12.1847 13.7131 11.0195 14.1957 9.80462 14.1957C8.58971 14.1957 7.42456 13.7131 6.56549 12.854C5.70643 11.995 5.22381 10.8298 5.22381 9.61492C5.22381 8.40001 5.70643 7.23487 6.56549 6.3758V6.3758ZM15.4014 5.71631C15.5068 5.61687 15.5912 5.4973 15.6495 5.36467C15.7079 5.23203 15.7391 5.08904 15.7412 4.94414C15.7433 4.79925 15.7163 4.65541 15.6618 4.52113C15.6074 4.38685 15.5265 4.26487 15.424 4.1624C15.3216 4.05994 15.1996 3.97907 15.0653 3.9246C14.931 3.87012 14.7872 3.84314 14.6423 3.84525C14.4974 3.84736 14.3544 3.87853 14.2218 3.93689C14.0891 3.99526 13.9696 4.07965 13.8701 4.18506C13.6767 4.39006 13.5709 4.66235 13.575 4.94414C13.5791 5.22593 13.6928 5.49503 13.8921 5.6943C14.0914 5.89358 14.3605 6.00735 14.6423 6.01146C14.9241 6.01556 15.1964 5.90969 15.4014 5.71631V5.71631Z" fill="white"/>
</svg>
