<?xml version="1.0" standalone="no"?>
<!DOCTYPE svg PUBLIC "-//W3C//DTD SVG 20010904//EN"
 "http://www.w3.org/TR/2001/REC-SVG-20010904/DTD/svg10.dtd">
<svg version="1.0" xmlns="http://www.w3.org/2000/svg"
 width="389.000000pt" height="389.000000pt" viewBox="0 0 389.000000 389.000000"
 preserveAspectRatio="xMidYMid meet">
<metadata>
Created by potrace 1.14, written by Peter Selinger 2001-2017
</metadata>
<g transform="translate(0.000000,389.000000) scale(0.100000,-0.100000)"
fill="#000000" stroke="none">
<path d="M1789 3886 c-2 -2 -35 -6 -73 -10 -68 -6 -290 -51 -307 -62 -5 -3
-20 -7 -34 -10 -35 -6 -199 -70 -275 -106 -221 -107 -437 -271 -610 -463 -44
-49 -54 -62 -123 -155 -182 -245 -316 -586 -354 -900 -9 -78 -10 -383 -1 -460
88 -726 563 -1332 1251 -1596 91 -35 250 -80 315 -90 20 -3 42 -7 49 -9 57
-19 417 -27 543 -12 294 35 584 139 835 301 216 139 426 350 572 574 143 219
258 518 289 752 2 19 8 64 13 100 9 66 7 394 -2 440 -3 14 -8 47 -12 73 -6 44
-11 73 -19 102 -1 6 -6 26 -10 45 -101 459 -423 912 -841 1182 -175 113 -460
232 -630 263 -16 3 -68 12 -115 21 -74 14 -450 30 -461 20z"/>
</g>
</svg>
